<svg width="38" height="38" viewBox="0 0 38 38" fill="none" xmlns="http://www.w3.org/2000/svg">
<path fill-rule="evenodd" clip-rule="evenodd" d="M19.681 0.263107C19.2986 -0.0877018 18.7114 -0.0877025 18.329 0.263106L15.2269 3.10892C14.9861 3.32975 14.6527 3.41909 14.3338 3.3482L10.2244 2.43465C9.71778 2.32204 9.20923 2.61564 9.05347 3.11066L7.78993 7.12615C7.69187 7.43777 7.44779 7.68185 7.13617 7.77989L3.12052 9.04338C2.62548 9.19914 2.33186 9.70771 2.44449 10.2143L3.35804 14.3235C3.42894 14.6424 3.3396 14.9758 3.11874 15.2166L0.272898 18.3185C-0.0779454 18.7009 -0.0779449 19.2881 0.272898 19.6706L3.11875 22.7725C3.3396 23.0132 3.42894 23.3466 3.35804 23.6655L2.44449 27.7747C2.33186 28.2813 2.62548 28.7899 3.12052 28.9457L7.13617 30.2092C7.44779 30.3072 7.69187 30.5513 7.78993 30.8629L9.05347 34.8784C9.20923 35.3734 9.71778 35.667 10.2244 35.5544L14.3338 34.6409C14.6527 34.57 14.9861 34.6593 15.2269 34.8801L18.329 37.7259C18.7114 38.0767 19.2986 38.0767 19.681 37.7259L22.7831 34.8801C23.0238 34.6593 23.3572 34.57 23.6761 34.6409L27.7856 35.5544C28.2922 35.667 28.8007 35.3734 28.9565 34.8784L30.22 30.8629C30.3181 30.5513 30.5622 30.3072 30.8738 30.2092L34.8895 28.9457C35.3845 28.7899 35.6781 28.2813 35.5655 27.7747L34.6519 23.6655C34.581 23.3466 34.6704 23.0132 34.8912 22.7725L37.7371 19.6706C38.0879 19.2881 38.0879 18.7009 37.7371 18.3185L34.8912 15.2166C34.6704 14.9758 34.581 14.6424 34.6519 14.3235L35.5655 10.2143C35.6781 9.70771 35.3845 9.19914 34.8895 9.04338L30.8738 7.77989C30.5622 7.68185 30.3181 7.43777 30.22 7.12615L28.9565 3.11066C28.8007 2.61564 28.2922 2.32204 27.7856 2.43465L23.6761 3.3482C23.3572 3.41909 23.0238 3.32975 22.7831 3.10892L19.681 0.263107ZM21.7614 15.188L19 9.98877L16.2386 15.188L10.4405 16.2076L14.5319 20.4405L13.7099 26.2699L19 23.6868L24.2901 26.2699L23.4681 20.4405L27.5595 16.2076L21.7614 15.188Z" fill="#000000"/>
</svg>
