<svg xmlns="http://www.w3.org/2000/svg" width="32" height="38" fill="none" xmlns:v="https://vecta.io/nano"><path fill-rule="evenodd" d="M16.47.3c.04.04 3.878 3.358 14.233 7.476a1.12 1.12 0 0 1 .72 1.039c0 20.47-14.552 28.705-15.152 29.025a1 1 0 0 1-.56.16c-.2 0-.4-.08-.56-.16C14.512 37.52 0 29.285 0 8.815a1.12 1.12 0 0 1 .72-1.039C11.114 3.618 14.912.34 14.952.3a1.11 1.11 0 0 1 1.519 0zM16 27c-5.53 0-10-4.46-10-9.977S10.47 7 16 7s10 4.506 10 10.023S21.53 27 16 27z" fill="#46c9df"/><path d="M12.593 16.092c-.44-.44-1.16-.44-1.6 0s-.44 1.16 0 1.6l2.96 2.96a1.19 1.19 0 0 0 .8.32 1.19 1.19 0 0 0 .8-.32l5.758-5.758c.44-.44.44-1.16 0-1.6s-1.16-.44-1.6 0l-4.958 4.96-2.16-2.16z" fill="#fff"/></svg>