<svg width="30" height="28" viewBox="0 0 30 28" fill="none" xmlns="http://www.w3.org/2000/svg">
<mask id="mask0" mask-type="alpha" maskUnits="userSpaceOnUse" x="0" y="0" width="30" height="28">
<rect width="30" height="28" fill="white"/>
</mask>
<g mask="url(#mask0)">
<path opacity="0.2" fill-rule="evenodd" clip-rule="evenodd" d="M31.8126 27.2504C46.0685 27.2504 57.6252 15.6937 57.6252 1.43784C57.6252 -12.8181 46.0685 -24.3748 31.8126 -24.3748C17.5567 -24.3748 6 -12.8181 6 1.43784C6 15.6937 17.5567 27.2504 31.8126 27.2504Z" fill="#457EC3"/>
<path fill-rule="evenodd" clip-rule="evenodd" d="M31.8126 15.2504C39.4411 15.2504 45.6252 9.06632 45.6252 1.43784C45.6252 -6.19065 39.4411 -12.3748 31.8126 -12.3748C24.1841 -12.3748 18 -6.19065 18 1.43784C18 9.06632 24.1841 15.2504 31.8126 15.2504Z" fill="url(#paint0_linear)"/>
</g>
<defs>
<linearGradient id="paint0_linear" x1="6.19778" y1="1.47502" x2="31.9856" y2="27.0101" gradientUnits="userSpaceOnUse">
<stop stop-color="#8074F2"/>
<stop offset="1" stop-color="#3C90EC"/>
</linearGradient>
</defs>
</svg>
