<svg width="52" height="53" viewBox="0 0 52 53" fill="none" xmlns="http://www.w3.org/2000/svg">
<path opacity="0.35" fill-rule="evenodd" clip-rule="evenodd" d="M25.8126 52.2502C40.0685 52.2502 51.6252 40.6935 51.6252 26.4376C51.6252 12.1817 40.0685 0.625 25.8126 0.625C11.5567 0.625 0 12.1817 0 26.4376C0 40.6935 11.5567 52.2502 25.8126 52.2502Z" fill="url(#paint0_linear)"/>
<path opacity="0.5" fill-rule="evenodd" clip-rule="evenodd" d="M35.5574 19.1269C35.5585 19.1016 35.559 19.0762 35.559 19.0508C35.559 16.8135 31.1806 14.9998 25.7795 14.9998C20.3784 14.9998 16 16.8135 16 19.0508C16 19.0762 16.0006 19.1016 16.0017 19.1269H16V34.9487V35.0248H16.0017C16.0996 37.227 20.4398 38.9998 25.7795 38.9998C31.1192 38.9998 35.4594 37.227 35.5574 35.0248H36V19.1269H35.5574Z" fill="#F2D874"/>
<path opacity="0.8" fill-rule="evenodd" clip-rule="evenodd" d="M26 22.9998C31.5228 22.9998 36 21.2089 36 18.9998C36 16.7906 31.5228 14.9998 26 14.9998C20.4772 14.9998 16 16.7906 16 18.9998C16 21.2089 20.4772 22.9998 26 22.9998Z" fill="#F2D874"/>
<path opacity="0.2" fill-rule="evenodd" clip-rule="evenodd" d="M26 37.9998C31.5228 37.9998 36 36.2089 36 33.9998C36 31.7906 31.5228 29.9998 26 29.9998C20.4772 29.9998 16 31.7906 16 33.9998C16 36.2089 20.4772 37.9998 26 37.9998Z" fill="#F2D874"/>
<defs>
<linearGradient id="paint0_linear" x1="0" y1="0.625" x2="0" y2="52.2502" gradientUnits="userSpaceOnUse">
<stop stop-color="#F2D874"/>
<stop offset="1" stop-color="#EC993C" stop-opacity="0.695199"/>
</linearGradient>
</defs>
</svg>
