<svg width="30" height="28" viewBox="0 0 30 28" fill="none" xmlns="http://www.w3.org/2000/svg">
<mask id="mask0" mask-type="alpha" maskUnits="userSpaceOnUse" x="0" y="0" width="30" height="28">
<rect width="30" height="28" fill="white"/>
</mask>
<g mask="url(#mask0)">
<path opacity="0.2" fill-rule="evenodd" clip-rule="evenodd" d="M0.812593 56.2504C15.0685 56.2504 26.6252 44.6937 26.6252 30.4378C26.6252 16.1819 15.0685 4.62524 0.812593 4.62524C-13.4433 4.62524 -25 16.1819 -25 30.4378C-25 44.6937 -13.4433 56.2504 0.812593 56.2504Z" fill="url(#paint0_linear)"/>
<path fill-rule="evenodd" clip-rule="evenodd" d="M0.812593 44.2504C8.44108 44.2504 14.6252 38.0663 14.6252 30.4378C14.6252 22.8094 8.44108 16.6252 0.812593 16.6252C-6.81589 16.6252 -13 22.8094 -13 30.4378C-13 38.0663 -6.81589 44.2504 0.812593 44.2504Z" fill="url(#paint1_linear)"/>
</g>
<defs>
<linearGradient id="paint0_linear" x1="32.1195" y1="1.09581" x2="-26.5645" y2="-16.6353" gradientUnits="userSpaceOnUse">
<stop stop-color="#F053C6"/>
<stop offset="0.765049" stop-color="#DD2A6F"/>
<stop offset="1" stop-color="#DC296C"/>
</linearGradient>
<linearGradient id="paint1_linear" x1="17.5653" y1="14.7366" x2="-13.8372" y2="5.24849" gradientUnits="userSpaceOnUse">
<stop stop-color="#F053C6"/>
<stop offset="0.765049" stop-color="#DD2A6F"/>
<stop offset="1" stop-color="#DC296C"/>
</linearGradient>
</defs>
</svg>
