<svg width="61" height="57" viewBox="0 0 61 57" fill="none" xmlns="http://www.w3.org/2000/svg">
<mask id="mask0" mask-type="alpha" maskUnits="userSpaceOnUse" x="31" y="0" width="30" height="28">
<rect x="31" width="30" height="28" fill="white"/>
</mask>
<g mask="url(#mask0)">
<path opacity="0.2" fill-rule="evenodd" clip-rule="evenodd" d="M31.8126 56.2504C46.0685 56.2504 57.6252 44.6937 57.6252 30.4378C57.6252 16.1819 46.0685 4.62524 31.8126 4.62524C17.5567 4.62524 6 16.1819 6 30.4378C6 44.6937 17.5567 56.2504 31.8126 56.2504Z" fill="url(#paint0_linear)"/>
<path fill-rule="evenodd" clip-rule="evenodd" d="M31.8126 44.2504C39.4411 44.2504 45.6252 38.0663 45.6252 30.4378C45.6252 22.8094 39.4411 16.6252 31.8126 16.6252C24.1841 16.6252 18 22.8094 18 30.4378C18 38.0663 24.1841 44.2504 31.8126 44.2504Z" fill="url(#paint1_linear)"/>
</g>
<mask id="mask1" mask-type="alpha" maskUnits="userSpaceOnUse" x="0" y="29" width="30" height="28">
<rect y="29" width="30" height="28" fill="white"/>
</mask>
<g mask="url(#mask1)">
<path opacity="0.2" fill-rule="evenodd" clip-rule="evenodd" d="M31.8126 56.2504C46.0685 56.2504 57.6252 44.6937 57.6252 30.4378C57.6252 16.1819 46.0685 4.62524 31.8126 4.62524C17.5567 4.62524 6 16.1819 6 30.4378C6 44.6937 17.5567 56.2504 31.8126 56.2504Z" fill="#457EC3"/>
<path fill-rule="evenodd" clip-rule="evenodd" d="M31.8126 44.2504C39.4411 44.2504 45.6252 38.0663 45.6252 30.4378C45.6252 22.8094 39.4411 16.6252 31.8126 16.6252C24.1841 16.6252 18 22.8094 18 30.4378C18 38.0663 24.1841 44.2504 31.8126 44.2504Z" fill="url(#paint2_linear)"/>
</g>
<defs>
<linearGradient id="paint0_linear" x1="63.1195" y1="1.09581" x2="4.4355" y2="-16.6353" gradientUnits="userSpaceOnUse">
<stop stop-color="#F053C6"/>
<stop offset="0.765049" stop-color="#DD2A6F"/>
<stop offset="1" stop-color="#DC296C"/>
</linearGradient>
<linearGradient id="paint1_linear" x1="48.5653" y1="14.7366" x2="17.1628" y2="5.24849" gradientUnits="userSpaceOnUse">
<stop stop-color="#F053C6"/>
<stop offset="0.765049" stop-color="#DD2A6F"/>
<stop offset="1" stop-color="#DC296C"/>
</linearGradient>
<linearGradient id="paint2_linear" x1="6.19778" y1="30.475" x2="31.9856" y2="56.0101" gradientUnits="userSpaceOnUse">
<stop stop-color="#8074F2"/>
<stop offset="1" stop-color="#3C90EC"/>
</linearGradient>
</defs>
</svg>
