<svg fill="none"  width="52" height="52" viewBox="0 0 52 52" xmlns="http://www.w3.org/2000/svg">
<path d="m25.813 51.625c14.256 0 25.812-11.556 25.812-25.812s-11.555-25.813-25.812-25.813c-14.256 0-25.813 11.557-25.813 25.813s11.557 25.812 25.813 25.812z" clip-rule="evenodd" fill="url(#a)" fill-rule="evenodd" opacity=".35"/>
<path d="M35.557 18.502c.002-.025.002-.05.002-.076 0-2.237-4.378-4.051-9.78-4.051-5.4 0-9.779 1.814-9.779 4.05 0 .026 0 .052.002.077H16V34.4h.002c.098 2.202 4.438 3.975 9.777 3.975 5.34 0 9.68-1.773 9.778-3.975H36V18.502h-.443z" clip-rule="evenodd" fill="#F2D874" fill-rule="evenodd" opacity=".5"/>
<path d="m26 22.375c5.523 0 10-1.791 10-4 0-2.21-4.477-4-10-4s-10 1.79-10 4c0 2.209 4.477 4 10 4z" clip-rule="evenodd" fill="#F2D874" fill-rule="evenodd" opacity=".8"/>
<path d="m26 37.375c5.523 0 10-1.791 10-4 0-2.21-4.477-4-10-4s-10 1.79-10 4c0 2.209 4.477 4 10 4z" clip-rule="evenodd" fill="#F2D874" fill-rule="evenodd" opacity=".2"/>
<defs>
<linearGradient id="a" x2="0" y2="51.625" gradientUnits="userSpaceOnUse">
<stop stop-color="#F2D874" offset="0"/>
<stop stop-color="#EC993C" stop-opacity=".695" offset="1"/>
</linearGradient>
</defs>
</svg>
