<svg width="61" height="57" fill="none" xmlns="http://www.w3.org/2000/svg"><mask id="a" maskUnits="userSpaceOnUse" x="31" y="0" width="30" height="28"><path fill="#fff" d="M31 0h30v28H31z"/></mask><g mask="url(#a)" fill-rule="evenodd" clip-rule="evenodd"><path opacity=".2" d="M31.813 56.25c14.256 0 25.812-11.556 25.812-25.812 0-14.256-11.556-25.813-25.812-25.813C17.557 4.625 6 16.182 6 30.438 6 44.694 17.557 56.25 31.813 56.25z" fill="url(#paint0_linear)"/><path d="M31.813 44.25c7.628 0 13.812-6.184 13.812-13.812 0-7.629-6.184-13.813-13.812-13.813C24.184 16.625 18 22.81 18 30.438c0 7.628 6.184 13.812 13.813 13.812z" fill="url(#paint1_linear)"/></g><mask id="b" maskUnits="userSpaceOnUse" x="0" y="29" width="30" height="28"><path fill="#fff" d="M0 29h30v28H0z"/></mask><g mask="url(#b)" fill-rule="evenodd" clip-rule="evenodd"><path opacity=".2" d="M31.813 56.25c14.256 0 25.812-11.556 25.812-25.812 0-14.256-11.556-25.813-25.812-25.813C17.557 4.625 6 16.182 6 30.438 6 44.694 17.557 56.25 31.813 56.25z" fill="#457EC3"/><path d="M31.813 44.25c7.628 0 13.812-6.184 13.812-13.812 0-7.629-6.184-13.813-13.812-13.813C24.184 16.625 18 22.81 18 30.438c0 7.628 6.184 13.812 13.813 13.812z" fill="url(#paint2_linear)"/></g><defs><linearGradient id="paint0_linear" x1="63.12" y1="1.096" x2="4.436" y2="-16.635" gradientUnits="userSpaceOnUse"><stop stop-color="#F053C6"/><stop offset=".765" stop-color="#DD2A6F"/><stop offset="1" stop-color="#DC296C"/></linearGradient><linearGradient id="paint1_linear" x1="48.565" y1="14.737" x2="17.163" y2="5.248" gradientUnits="userSpaceOnUse"><stop stop-color="#F053C6"/><stop offset=".765" stop-color="#DD2A6F"/><stop offset="1" stop-color="#DC296C"/></linearGradient><linearGradient id="paint2_linear" x1="6.198" y1="30.475" x2="31.986" y2="56.01" gradientUnits="userSpaceOnUse"><stop stop-color="#8074F2"/><stop offset="1" stop-color="#3C90EC"/></linearGradient></defs></svg>