<svg viewBox="0 0 17 16" fill="none" xmlns="http://www.w3.org/2000/svg"><path fill-rule="evenodd" clip-rule="evenodd" d="M14.277 0H2.414C1.287 0 .365.828.365 2.033V13.81c0 1.206.922 2.034 2.049 2.034h11.863c1.126 0 2.048-.828 2.048-2.034V2.033C16.325.828 15.403 0 14.277 0zm-3.004 2.474c0-.393.323-.714.718-.714h1.804c.395 0 .719.321.719.714V4.18a.718.718 0 01-.719.713h-1.804a.718.718 0 01-.718-.713V2.474zM14.521 6.7h-1.405c.133.431.205.887.205 1.36 0 2.635-2.221 4.771-4.96 4.771-2.74 0-4.961-2.136-4.961-4.772A4.6 4.6 0 013.604 6.7H2.14v6.693c0 .346.285.63.634.63h11.114a.634.634 0 00.634-.63V6.7zM5.155 7.887c0-1.702 1.435-3.083 3.205-3.083s3.206 1.38 3.206 3.083c0 1.703-1.436 3.084-3.206 3.084S5.155 9.59 5.155 7.887z" fill="#82919A"/></svg>