<svg width="68" height="8" fill="none" xmlns="http://www.w3.org/2000/svg"><path d="M3.112 0L0 7.687h1.629l.663-1.713h3.07l.664 1.713h1.67L4.584 0H3.112zm-.25 4.49l.965-2.475.965 2.474h-1.93z" fill="#fff"/><path fill-rule="evenodd" clip-rule="evenodd" d="M17.985 4.732L14.506 0H13v7.687h1.612V2.798l3.596 4.889h1.389V0h-1.612v4.732z" fill="#fff"/><path d="M28.11 0L25 7.687h1.629l.663-1.713h3.07l.665 1.713h1.669L29.585 0h-1.474zm-.247 4.49l.963-2.475.965 2.474h-1.928zM39.792 0H37v7.687h2.792c2.25 0 3.804-1.681 3.804-3.845C43.596 1.659 42.042 0 39.792 0zm0 6.16h-1.219V1.524h1.219c1.29 0 2.158.956 2.158 2.317 0 1.384-.869 2.317-2.158 2.317z" fill="#fff"/><path fill-rule="evenodd" clip-rule="evenodd" d="M50.578 4.568h3.402V3.065h-3.402v-1.56h3.867V0H49v7.687h5.497V6.183h-3.919V4.568z" fill="#fff"/><path d="M64.585 0h-1.472L60 7.687h1.628l.666-1.713h3.068l.666 1.713h1.668L64.585 0zm-1.722 4.49l.963-2.475.964 2.474h-1.927z" fill="#fff"/></svg>