<svg  viewBox="0 0 20 16" fill="none" xmlns="http://www.w3.org/2000/svg"><path d="M17.857 3.944c.008.173.012.346.012.52 0 5.286-4.052 11.38-11.466 11.38-2.276 0-4.394-.66-6.177-1.796.315.037.636.056.961.056 1.889 0 3.626-.64 5.005-1.712a4.03 4.03 0 01-3.764-2.779 4.091 4.091 0 001.82-.067c-1.844-.367-3.233-1.984-3.233-3.923v-.05c.544.299 1.165.48 1.825.5A3.99 3.99 0 011.593.732 11.47 11.47 0 009.9 4.912 3.967 3.967 0 019.795 4c0-2.208 1.804-4 4.03-4a4.04 4.04 0 012.94 1.263 8.079 8.079 0 002.56-.971 4.023 4.023 0 01-1.774 2.214 8.057 8.057 0 002.315-.63 8.071 8.071 0 01-2.009 2.068z" fill="#82919A"/></svg>