<svg width="17" height="16" viewBox="0 0 17 16" fill="none" xmlns="http://www.w3.org/2000/svg">
<path fill-rule="evenodd" clip-rule="evenodd" d="M2.80878 3.98864C1.69268 3.98864 0.799805 3.10228 0.799805 1.99432C0.799805 0.886365 1.69268 0 2.80878 0C3.92487 0 4.81775 0.886365 4.81775 1.99432C4.81775 3.10228 3.92487 3.98864 2.80878 3.98864ZM4.48291 15.8438H1.13477V5.87217H4.48291V15.8438ZM13.4117 15.8438H16.76V9.52842C16.76 7.42331 14.9743 5.65058 12.8537 5.65058C11.8492 5.65058 10.6215 6.31535 10.0634 7.20171V5.87217H6.71515V15.8438H10.0634V9.97161C10.0634 9.08528 10.8447 8.30967 11.7376 8.30967C12.6305 8.30967 13.4117 9.08528 13.4117 9.97161V15.8438Z" fill="#82919A"/>
</svg>
